<?xml version="1.0" encoding="iso-8859-1"?>
<!-- Generator: Adobe Illustrator 19.0.0, SVG Export Plug-In . SVG Version: 6.00 Build 0)  -->
<svg xmlns="http://www.w3.org/2000/svg" xmlns:xlink="http://www.w3.org/1999/xlink" version="1.1" id="Layer_1" x="0px" y="0px" viewBox="0 0 297 297" style="enable-background:new 0 0 297 297;" xml:space="preserve" width="512px" height="512px">
<g>
	<g>
		<g>
			<path d="M244.473,59.832c0-10.822-8.805-19.626-19.627-19.626H72.152c-10.822,0-19.626,8.804-19.626,19.626v18.244h191.948     V59.832H244.473z" fill="#555555"/>
			<path d="M121.004,13.488h54.99v13.229h13.488V6.744c0-3.725-3.019-6.744-6.744-6.744h-68.479c-3.725,0-6.744,3.019-6.744,6.744     v19.973h13.489V13.488z" fill="#555555"/>
			<path d="M193.113,273.748c0,5.393-4.372,9.764-9.764,9.764c-5.393,0-9.764-4.371-9.764-9.764V91.564h-50.173v182.184     c0,5.393-4.372,9.764-9.764,9.764c-5.393,0-9.764-4.371-9.764-9.764V91.564H56.516l11.881,199.094     C68.61,294.22,71.56,297,75.129,297h146.739c3.569,0,6.519-2.78,6.732-6.342l11.881-199.094h-47.368V273.748z" fill="#555555"/>
		</g>
	</g>
</g>
<g>
</g>
<g>
</g>
<g>
</g>
<g>
</g>
<g>
</g>
<g>
</g>
<g>
</g>
<g>
</g>
<g>
</g>
<g>
</g>
<g>
</g>
<g>
</g>
<g>
</g>
<g>
</g>
<g>
</g>
</svg>
